<?xml version="1.0" encoding="utf-8"?>
<!-- Generator: Adobe Illustrator 22.0.0, SVG Export Plug-In . SVG Version: 6.00 Build 0)  -->
<svg version="1.1" id="Layer_1" xmlns="http://www.w3.org/2000/svg" xmlns:xlink="http://www.w3.org/1999/xlink" x="0px" y="0px"
	 viewBox="0 0 400 78" style="enable-background:new 0 0 400 78;" xml:space="preserve">
<style type="text/css">
	.st0{fill:#323234;}
	.st1{fill:#5BAAA1;}
</style>
<g>
	<g>
		<path class="st0" d="M0.5,51.3l24.9-40.8H5.9V2.9h32.9L14,43.8h24.2v7.6H0.5z"/>
		<path class="st0" d="M86,41H68.8l-4.1,10.4h-8.3L77.4,0.7l21,50.6h-8.3L86,41z M83.3,34.2l-5.9-14.7l-5.9,14.7H83.3z"/>
		<path class="st0" d="M125.7,20.2v31.1h-7.6V0.6L148.6,34v-31h7.6v50.6L125.7,20.2z"/>
		<path class="st0" d="M206.1,51.3l-19.2-21.9v21.9h-7.6V2.9h7.6v20l15.5-20h9.5l-17.7,23.3l21.3,25.1H206.1z"/>
	</g>
	<g>
		<path class="st0" d="M5.7,65.8h0.8L8.2,70l1.7-4.2h0.8l-2,4.8l2.4,5.6l4.4-10.5h0.9l-4.9,11.5h-0.8l-2.5-5.9l-2.5,5.9H4.9L0,65.8
			h0.9l4.4,10.5l2.4-5.6L5.7,65.8z"/>
		<path class="st0" d="M43.7,76.5v0.7H36V65.8h7.5v0.7h-6.7V71h5.8v0.7h-5.8v4.8H43.7z"/>
		<path class="st0" d="M63.8,77.3V65.8h3.8c0.9,0,1.7,0.1,2.4,0.5c0.7,0.3,1.3,0.7,1.7,1.2c0.5,0.5,0.8,1.1,1,1.8
			c0.2,0.7,0.3,1.4,0.3,2.2c0,0.9-0.1,1.7-0.4,2.4c-0.3,0.7-0.6,1.3-1.1,1.8c-0.5,0.5-1,0.9-1.7,1.2c-0.7,0.3-1.4,0.4-2.3,0.4H63.8z
			 M72.3,71.5c0-0.7-0.1-1.4-0.3-2c-0.2-0.6-0.5-1.1-0.9-1.6c-0.4-0.4-0.9-0.8-1.5-1c-0.6-0.2-1.2-0.4-2-0.4h-3v10h3
			c0.8,0,1.4-0.1,2-0.4c0.6-0.3,1.1-0.6,1.5-1.1c0.4-0.5,0.7-1,0.9-1.6C72.2,72.9,72.3,72.2,72.3,71.5z"/>
		<path class="st0" d="M93.3,77.3V65.8h3.8c0.9,0,1.7,0.1,2.4,0.5c0.7,0.3,1.3,0.7,1.7,1.2c0.5,0.5,0.8,1.1,1,1.8
			c0.2,0.7,0.3,1.4,0.3,2.2c0,0.9-0.1,1.7-0.4,2.4c-0.3,0.7-0.6,1.3-1.1,1.8c-0.5,0.5-1,0.9-1.7,1.2c-0.7,0.3-1.4,0.4-2.3,0.4H93.3z
			 M101.7,71.5c0-0.7-0.1-1.4-0.3-2c-0.2-0.6-0.5-1.1-0.9-1.6c-0.4-0.4-0.9-0.8-1.5-1c-0.6-0.2-1.2-0.4-2-0.4h-3v10h3
			c0.8,0,1.4-0.1,2-0.4c0.6-0.3,1.1-0.6,1.5-1.1c0.4-0.5,0.7-1,0.9-1.6C101.6,72.9,101.7,72.2,101.7,71.5z"/>
		<path class="st0" d="M122.7,77.3V65.8h0.8v11.5H122.7z"/>
		<path class="st0" d="M145.2,67.3v10h-0.8V65.8h0.6l8.1,10.1V65.8h0.8v11.5h-0.8L145.2,67.3z"/>
		<path class="st0" d="M183.3,75.5c-1.1,1.2-2.4,1.9-3.9,1.9c-0.8,0-1.5-0.2-2.2-0.5c-0.7-0.3-1.2-0.8-1.7-1.3
			c-0.5-0.6-0.8-1.2-1.1-1.9c-0.3-0.7-0.4-1.4-0.4-2.1c0-0.8,0.1-1.5,0.4-2.2c0.3-0.7,0.6-1.3,1.1-1.9c0.5-0.5,1-1,1.7-1.3
			c0.6-0.3,1.3-0.5,2.1-0.5c0.6,0,1.1,0.1,1.6,0.2c0.5,0.1,0.9,0.3,1.2,0.5c0.4,0.2,0.7,0.5,0.9,0.8c0.3,0.3,0.5,0.6,0.7,1l-0.7,0.4
			c-0.4-0.8-0.9-1.3-1.6-1.6c-0.6-0.3-1.4-0.5-2.2-0.5c-0.7,0-1.3,0.1-1.8,0.4c-0.5,0.3-1,0.7-1.4,1.2c-0.4,0.5-0.7,1-0.9,1.6
			c-0.2,0.6-0.3,1.2-0.3,1.9c0,0.7,0.1,1.3,0.4,1.9c0.2,0.6,0.6,1.1,1,1.6c0.4,0.5,0.9,0.8,1.5,1.1c0.6,0.3,1.2,0.4,1.8,0.4
			c0.7,0,1.4-0.2,2-0.5c0.6-0.3,1.2-0.8,1.8-1.5v-2.2h-2.6v-0.7h3.3v5.6h-0.7V75.5z"/>
		<path class="st0" d="M211.1,67.7c-0.7-0.8-1.8-1.2-3.2-1.2c-1.1,0-1.9,0.2-2.5,0.6c-0.5,0.4-0.8,1-0.8,1.7c0,0.4,0.1,0.7,0.2,0.9
			c0.1,0.3,0.3,0.5,0.6,0.6c0.3,0.2,0.6,0.3,1.1,0.4c0.4,0.1,0.9,0.2,1.5,0.4c0.6,0.1,1.2,0.3,1.7,0.4c0.5,0.2,0.9,0.4,1.3,0.6
			c0.4,0.2,0.6,0.5,0.8,0.9c0.2,0.3,0.3,0.8,0.3,1.3c0,0.5-0.1,1-0.3,1.3c-0.2,0.4-0.5,0.7-0.8,0.9c-0.4,0.3-0.8,0.4-1.3,0.6
			c-0.5,0.1-1.1,0.2-1.7,0.2c-1.8,0-3.3-0.6-4.6-1.7l0.4-0.7c0.5,0.5,1.1,0.9,1.8,1.2c0.7,0.3,1.5,0.4,2.4,0.4c1,0,1.8-0.2,2.4-0.6
			c0.6-0.4,0.9-0.9,0.9-1.7c0-0.4-0.1-0.7-0.2-1c-0.1-0.3-0.4-0.5-0.7-0.7c-0.3-0.2-0.7-0.4-1.1-0.5c-0.4-0.1-1-0.3-1.6-0.4
			c-0.6-0.1-1.2-0.3-1.6-0.4c-0.5-0.1-0.9-0.3-1.2-0.6c-0.3-0.2-0.6-0.5-0.7-0.8c-0.2-0.3-0.2-0.7-0.2-1.2c0-0.5,0.1-1,0.3-1.4
			c0.2-0.4,0.5-0.7,0.8-1c0.4-0.3,0.8-0.5,1.3-0.6c0.5-0.1,1-0.2,1.7-0.2c0.7,0,1.4,0.1,2,0.3c0.6,0.2,1.1,0.6,1.6,1L211.1,67.7z"/>
	</g>
	<g>
		<path class="st1" d="M266.6,35.3c-1.4,3.8-2.7,7.3-4.1,10.5c-1.3,3.2-2.7,6.1-4.2,8.8c2.1-0.2,4-0.5,5.8-0.8
			c1.7-0.3,3.3-0.7,4.7-1.2c1.4-0.5,2.7-1.1,3.9-1.9c1.2-0.7,2.3-1.7,3.4-2.8c1.1-1.1,2.1-2.4,3.2-3.8c1-1.5,2.1-3.2,3.2-5.1
			l1.8-3.2l0.9,0.7l-1.8,3.2c-1.2,2.1-2.3,3.8-3.4,5.4c-1.1,1.5-2.2,2.8-3.4,4c-1.2,1.1-2.4,2.1-3.7,2.8c-1.3,0.8-2.7,1.4-4.2,1.9
			c-1.5,0.5-3.2,0.9-5,1.2c-1.8,0.3-3.8,0.6-6,0.8c-1.8,3.2-3.6,5.9-5.5,8.3c-1.9,2.3-3.8,4.3-5.9,5.9c-2.1,1.6-4.2,2.7-6.5,3.5
			c-2.3,0.8-4.7,1.2-7.2,1.2c-2.8,0-4.9-0.7-6.4-2c-1.5-1.3-2.2-3.2-2.2-5.7c0-1.7,0.5-3.1,1.6-4.4c1-1.3,2.7-2.4,5-3.3
			c2.3-0.9,5.3-1.7,8.9-2.4c3.6-0.7,8.1-1.2,13.2-1.7c0.9-1.9,1.8-4,2.8-6.3c1-2.3,2-4.8,3.1-7.6l1.6-4.1c-1.1,1.6-2.2,3.1-3.3,4.4
			c-1.1,1.4-2.3,2.5-3.5,3.5c-1.2,1-2.5,1.7-3.8,2.3c-1.3,0.5-2.6,0.8-4,0.8c-1.3,0-2.5-0.2-3.6-0.6c-1.1-0.4-2.1-1-3-1.8
			c-0.9-0.8-1.5-1.8-2-3c-0.5-1.2-0.7-2.6-0.7-4.1c0-1.8,0.2-3.7,0.7-5.5c0.5-1.8,1.1-3.7,1.8-5.5c0.7-1.8,1.5-3.6,2.4-5.4
			c0.8-1.8,1.6-3.6,2.4-5.3c0.7-1.8,1.3-3.5,1.8-5.3c0.5-1.7,0.7-3.5,0.7-5.2c0-0.6-0.1-1.1-0.2-1.7c-0.1-0.5-0.3-1-0.5-1.4
			c-0.2-0.4-0.5-0.7-0.9-1c-0.4-0.2-0.9-0.4-1.5-0.4c-1,0-2.1,0.3-3.2,1c-1.1,0.7-2.3,1.7-3.4,3.1c-1.2,1.4-2.4,3.2-3.6,5.3
			c-1.2,2.1-2.4,4.6-3.6,7.5l-0.9-0.7c1.3-3.1,2.6-5.8,3.9-8s2.6-4,3.9-5.4c1.3-1.4,2.7-2.4,4-3.1c1.3-0.6,2.6-1,4-1
			c1.2,0,2.2,0.2,3.1,0.5c0.9,0.3,1.7,0.8,2.4,1.5c0.7,0.6,1.2,1.4,1.5,2.3c0.4,0.9,0.5,1.9,0.5,3c0,1.7-0.3,3.5-0.8,5.3
			c-0.5,1.8-1.2,3.7-2,5.6c-0.8,1.9-1.6,3.8-2.6,5.7c-0.9,1.9-1.8,3.8-2.6,5.7c-0.8,1.9-1.4,3.7-2,5.4c-0.5,1.8-0.8,3.4-0.8,5
			c0,0.9,0.1,1.7,0.4,2.4c0.2,0.7,0.6,1.3,1,1.8c0.4,0.5,0.9,0.9,1.5,1.2c0.6,0.3,1.2,0.4,1.9,0.4c1.3,0,2.7-0.3,4-1
			c1.3-0.7,2.6-1.6,3.9-2.8c1.3-1.1,2.5-2.4,3.6-3.9c1.1-1.5,2.2-2.9,3.1-4.5c1-1.5,1.8-3,2.5-4.5c0.7-1.5,1.3-2.8,1.8-4l8.5-22.6
			h5.2L266.6,35.3z M232.3,73.1c1.9,0,3.8-0.2,5.5-0.7c1.7-0.5,3.4-1.4,5-2.6c1.6-1.3,3.2-3,4.7-5.1c1.5-2.2,3.1-4.9,4.8-8.2
			c-3.6,0.3-6.9,0.7-10.1,1.2c-3.2,0.5-6,1.2-8.4,2c-2.4,0.8-4.3,1.8-5.7,3c-1.4,1.2-2.1,2.6-2.1,4.3c0,2,0.5,3.6,1.6,4.6
			C228.4,72.6,230,73.1,232.3,73.1z"/>
	</g>
	<g>
		<path class="st0" d="M309.8,49.4c-2.9-1.2-5.5-3-7.7-5.2c-2.2-2.2-4-4.8-5.2-7.7c-1.2-2.9-1.9-6.1-1.9-9.4c0-3.3,0.7-6.5,1.9-9.5
			c1.2-2.9,3-5.4,5.2-7.7c2.2-2.2,4.8-3.9,7.7-5.2c2.9-1.2,6.1-1.9,9.4-1.9c3.3,0,6.5,0.7,9.5,1.9c2.9,1.2,5.4,2.9,7.7,5.2
			c2.2,2.3,3.9,4.8,5.2,7.7c1.2,3,1.9,6.2,1.9,9.5c0,3.3-0.7,6.5-1.9,9.4c-1.2,2.9-2.9,5.5-5.2,7.7c-2.3,2.2-4.8,4-7.7,5.2
			c-3,1.2-6.2,1.9-9.5,1.9C316,51.3,312.8,50.7,309.8,49.4z M307.5,15.4c-3.1,3.1-4.9,7.3-4.9,11.7c0,4.4,1.8,8.6,4.9,11.7
			c3.1,3.1,7.3,4.9,11.7,4.9c4.4,0,8.6-1.8,11.7-4.9c3.1-3.1,4.9-7.3,4.9-11.7c0-4.4-1.8-8.6-4.9-11.7c-3.1-3.1-7.3-4.9-11.7-4.9
			C314.8,10.5,310.6,12.3,307.5,15.4z"/>
		<path class="st0" d="M370.1,47.5c-1.9-1.4-3.3-3.2-4.3-5.2c-1.1-2.2-1.6-4.7-1.6-7.4v-32h7.6v32c0,2.9,1,5.1,3,6.6
			c1.8,1.4,4.5,2.3,7.4,2.3c2.8,0,5.5-0.8,7.4-2.3c2-1.5,2.9-3.7,2.9-6.6v-32h7.6v32c0,2.7-0.6,5.2-1.6,7.4c-1,2-2.5,3.8-4.3,5.2
			c-3.2,2.5-7.4,3.8-12,3.8C377.5,51.3,373.3,50,370.1,47.5z"/>
	</g>
</g>
</svg>
